<mxfile host="app.diagrams.net" modified="2021-01-07T08:55:41.841Z" agent="5.0 (X11; Linux x86_64) AppleWebKit/537.36 (KHTML, like Gecko) Chrome/87.0.4280.66 Safari/537.36" etag="1FApEJZNC1B-R-UA2for" version="14.1.8" type="github">
  <diagram id="VKiaby6FS-RiClURwGpi" name="Page-1">
    <mxGraphModel dx="1355" dy="-3194" grid="1" gridSize="10" guides="1" tooltips="1" connect="1" arrows="1" fold="1" page="1" pageScale="1" pageWidth="250" pageHeight="500" math="0" shadow="0">
      <root>
        <mxCell id="0" />
        <mxCell id="1" parent="0" />
        <mxCell id="i56FqKJK_a-0PG-fifYE-1" value="&lt;font style=&quot;font-size: 30px&quot;&gt;Post Rules(&lt;/font&gt;&lt;font style=&quot;font-size: 20px&quot;&gt;/api/rules&lt;/font&gt;&lt;font style=&quot;font-size: 30px&quot;&gt;)&lt;/font&gt;" style="text;html=1;strokeColor=none;fillColor=none;align=center;verticalAlign=middle;whiteSpace=wrap;rounded=0;" vertex="1" parent="1">
          <mxGeometry x="227.5" y="4130" width="666" height="50" as="geometry" />
        </mxCell>
        <mxCell id="i56FqKJK_a-0PG-fifYE-2" value=":RuleRest&#xa;Controller" style="shape=umlLifeline;perimeter=lifelinePerimeter;container=1;collapsible=0;recursiveResize=0;rounded=0;shadow=0;strokeWidth=1;" vertex="1" parent="1">
          <mxGeometry x="50" y="4220" width="100" height="620" as="geometry" />
        </mxCell>
        <mxCell id="i56FqKJK_a-0PG-fifYE-3" value="" style="points=[];perimeter=orthogonalPerimeter;rounded=0;shadow=0;strokeWidth=1;" vertex="1" parent="i56FqKJK_a-0PG-fifYE-2">
          <mxGeometry x="45" y="70" width="10" height="490" as="geometry" />
        </mxCell>
        <mxCell id="i56FqKJK_a-0PG-fifYE-4" value="dispatch" style="verticalAlign=bottom;startArrow=oval;endArrow=block;startSize=8;shadow=0;strokeWidth=1;" edge="1" parent="i56FqKJK_a-0PG-fifYE-2" target="i56FqKJK_a-0PG-fifYE-3">
          <mxGeometry relative="1" as="geometry">
            <mxPoint x="-15" y="70" as="sourcePoint" />
          </mxGeometry>
        </mxCell>
        <mxCell id="i56FqKJK_a-0PG-fifYE-5" value=":Rule" style="shape=umlLifeline;perimeter=lifelinePerimeter;container=1;collapsible=0;recursiveResize=0;rounded=0;shadow=0;strokeWidth=1;" vertex="1" parent="1">
          <mxGeometry x="230" y="4220" width="100" height="620" as="geometry" />
        </mxCell>
        <mxCell id="i56FqKJK_a-0PG-fifYE-6" value="" style="points=[];perimeter=orthogonalPerimeter;rounded=0;shadow=0;strokeWidth=1;" vertex="1" parent="i56FqKJK_a-0PG-fifYE-5">
          <mxGeometry x="45" y="70" width="10" height="490" as="geometry" />
        </mxCell>
        <mxCell id="i56FqKJK_a-0PG-fifYE-7" value="save" style="verticalAlign=bottom;endArrow=block;entryX=0;entryY=0;shadow=0;strokeWidth=1;" edge="1" parent="1">
          <mxGeometry relative="1" as="geometry">
            <mxPoint x="105" y="4311" as="sourcePoint" />
            <mxPoint x="275" y="4311" as="targetPoint" />
          </mxGeometry>
        </mxCell>
        <mxCell id="i56FqKJK_a-0PG-fifYE-8" value=":RuleRepository" style="shape=umlLifeline;perimeter=lifelinePerimeter;container=1;collapsible=0;recursiveResize=0;rounded=0;shadow=0;strokeWidth=1;" vertex="1" parent="1">
          <mxGeometry x="394.5" y="4220" width="100" height="620" as="geometry" />
        </mxCell>
        <mxCell id="i56FqKJK_a-0PG-fifYE-9" value="" style="points=[];perimeter=orthogonalPerimeter;rounded=0;shadow=0;strokeWidth=1;" vertex="1" parent="i56FqKJK_a-0PG-fifYE-8">
          <mxGeometry x="45" y="70" width="10" height="490" as="geometry" />
        </mxCell>
        <mxCell id="i56FqKJK_a-0PG-fifYE-10" value="save" style="verticalAlign=bottom;endArrow=block;shadow=0;strokeWidth=1;" edge="1" parent="1">
          <mxGeometry relative="1" as="geometry">
            <mxPoint x="285" y="4323" as="sourcePoint" />
            <mxPoint x="439.5" y="4323" as="targetPoint" />
          </mxGeometry>
        </mxCell>
        <mxCell id="i56FqKJK_a-0PG-fifYE-11" value="getId" style="verticalAlign=bottom;endArrow=block;shadow=0;strokeWidth=1;" edge="1" parent="1">
          <mxGeometry relative="1" as="geometry">
            <mxPoint x="105" y="4376" as="sourcePoint" />
            <mxPoint x="275" y="4376" as="targetPoint" />
          </mxGeometry>
        </mxCell>
        <mxCell id="i56FqKJK_a-0PG-fifYE-12" value=":ObjectMapper" style="shape=umlLifeline;perimeter=lifelinePerimeter;container=1;collapsible=0;recursiveResize=0;rounded=0;shadow=0;strokeWidth=1;" vertex="1" parent="1">
          <mxGeometry x="571" y="4220" width="100" height="620" as="geometry" />
        </mxCell>
        <mxCell id="i56FqKJK_a-0PG-fifYE-13" value="" style="points=[];perimeter=orthogonalPerimeter;rounded=0;shadow=0;strokeWidth=1;" vertex="1" parent="i56FqKJK_a-0PG-fifYE-12">
          <mxGeometry x="45" y="70" width="10" height="490" as="geometry" />
        </mxCell>
        <mxCell id="i56FqKJK_a-0PG-fifYE-14" value="getRulePayload" style="verticalAlign=bottom;endArrow=block;shadow=0;strokeWidth=1;" edge="1" parent="1" target="i56FqKJK_a-0PG-fifYE-6">
          <mxGeometry relative="1" as="geometry">
            <mxPoint x="105" y="4426" as="sourcePoint" />
            <mxPoint x="616" y="4426" as="targetPoint" />
          </mxGeometry>
        </mxCell>
        <mxCell id="i56FqKJK_a-0PG-fifYE-15" value="readValue" style="verticalAlign=bottom;endArrow=block;shadow=0;strokeWidth=1;" edge="1" parent="1" target="i56FqKJK_a-0PG-fifYE-13">
          <mxGeometry relative="1" as="geometry">
            <mxPoint x="105" y="4476" as="sourcePoint" />
            <mxPoint x="439.5" y="4476" as="targetPoint" />
          </mxGeometry>
        </mxCell>
        <mxCell id="i56FqKJK_a-0PG-fifYE-16" value="setRulePayload" style="verticalAlign=bottom;endArrow=block;shadow=0;strokeWidth=1;" edge="1" parent="1" target="i56FqKJK_a-0PG-fifYE-23">
          <mxGeometry relative="1" as="geometry">
            <mxPoint x="105" y="4526" as="sourcePoint" />
            <mxPoint x="275" y="4526" as="targetPoint" />
          </mxGeometry>
        </mxCell>
        <mxCell id="i56FqKJK_a-0PG-fifYE-17" value="save" style="verticalAlign=bottom;endArrow=block;shadow=0;strokeWidth=1;" edge="1" parent="1" target="i56FqKJK_a-0PG-fifYE-9">
          <mxGeometry relative="1" as="geometry">
            <mxPoint x="105" y="4570" as="sourcePoint" />
            <mxPoint x="275" y="4570" as="targetPoint" />
          </mxGeometry>
        </mxCell>
        <mxCell id="i56FqKJK_a-0PG-fifYE-18" value=":FlinkService" style="shape=umlLifeline;perimeter=lifelinePerimeter;container=1;collapsible=0;recursiveResize=0;rounded=0;shadow=0;strokeWidth=1;" vertex="1" parent="1">
          <mxGeometry x="935" y="4220" width="100" height="620" as="geometry" />
        </mxCell>
        <mxCell id="i56FqKJK_a-0PG-fifYE-19" value="" style="points=[];perimeter=orthogonalPerimeter;rounded=0;shadow=0;strokeWidth=1;" vertex="1" parent="i56FqKJK_a-0PG-fifYE-18">
          <mxGeometry x="45" y="70" width="10" height="490" as="geometry" />
        </mxCell>
        <mxCell id="i56FqKJK_a-0PG-fifYE-20" value="addRule" style="verticalAlign=bottom;endArrow=block;shadow=0;strokeWidth=1;" edge="1" parent="1" target="i56FqKJK_a-0PG-fifYE-19">
          <mxGeometry relative="1" as="geometry">
            <mxPoint x="105" y="4610" as="sourcePoint" />
            <mxPoint x="439.5" y="4610" as="targetPoint" />
          </mxGeometry>
        </mxCell>
        <mxCell id="i56FqKJK_a-0PG-fifYE-21" value="getRulePayload" style="verticalAlign=bottom;endArrow=block;shadow=0;strokeWidth=1;" edge="1" parent="1" source="i56FqKJK_a-0PG-fifYE-19">
          <mxGeometry relative="1" as="geometry">
            <mxPoint x="787.5" y="4669" as="sourcePoint" />
            <mxPoint x="285" y="4669" as="targetPoint" />
          </mxGeometry>
        </mxCell>
        <mxCell id="i56FqKJK_a-0PG-fifYE-22" value=":RulePayLoad" style="shape=umlLifeline;perimeter=lifelinePerimeter;container=1;collapsible=0;recursiveResize=0;rounded=0;shadow=0;strokeWidth=1;" vertex="1" parent="1">
          <mxGeometry x="745" y="4220" width="100" height="620" as="geometry" />
        </mxCell>
        <mxCell id="i56FqKJK_a-0PG-fifYE-23" value="" style="points=[];perimeter=orthogonalPerimeter;rounded=0;shadow=0;strokeWidth=1;" vertex="1" parent="i56FqKJK_a-0PG-fifYE-22">
          <mxGeometry x="45" y="70" width="10" height="490" as="geometry" />
        </mxCell>
        <mxCell id="i56FqKJK_a-0PG-fifYE-24" value=":KafkaTemplate" style="shape=umlLifeline;perimeter=lifelinePerimeter;container=1;collapsible=0;recursiveResize=0;rounded=0;shadow=0;strokeWidth=1;" vertex="1" parent="1">
          <mxGeometry x="1120" y="4220" width="100" height="620" as="geometry" />
        </mxCell>
        <mxCell id="i56FqKJK_a-0PG-fifYE-25" value="" style="points=[];perimeter=orthogonalPerimeter;rounded=0;shadow=0;strokeWidth=1;" vertex="1" parent="i56FqKJK_a-0PG-fifYE-24">
          <mxGeometry x="45" y="70" width="10" height="490" as="geometry" />
        </mxCell>
        <mxCell id="i56FqKJK_a-0PG-fifYE-26" value="send" style="verticalAlign=bottom;endArrow=block;shadow=0;strokeWidth=1;" edge="1" parent="1">
          <mxGeometry relative="1" as="geometry">
            <mxPoint x="990" y="4705" as="sourcePoint" />
            <mxPoint x="1165" y="4705" as="targetPoint" />
          </mxGeometry>
        </mxCell>
      </root>
    </mxGraphModel>
  </diagram>
</mxfile>
